<svg xmlns="http://www.w3.org/2000/svg" width="391" height="780" fill="none" id="lady">
  <path fill="#fff" fill-rule="evenodd" d="m125.183 275.771-.336 4.001-.251-.468c-.036 8.071-1.234 16.232-2.555 24.285-3.454-2.835-6.294-5.335-5.474-10.175 2.077-6.897 4.741-13.626 6.895-20.486l.361 1.799 1.421.286-.061.758Zm246.683 425.228c-.636-2.805-1.33-5.774-1.98-8.586-.065-.238-.66-.291-.852-.355-3.438-8.405-6.447-10.32-13.106-11.464-10.739-1.939-21.336-6.143-31.48-12.373.236-.927.884-2.528 1.472-4.238a1.513 1.513 0 0 1-.62.089c-.688 1.612-1.437 3.029-1.833 3.551-1.267-.816-2.677-1.713-3.918-2.58l.005-.015c-1.105-.765-2.471-1.709-3.553-2.298-.203-1.118-1.844-1.465-2.701-2.203-1.664-1.187-2.588-1.799-4.114-.283-3.293-4.269-5.945-8.783-8.552-14.619-1.632-3.41-2.433-7.187-4.627-10.233.042-.023 1.437-.457 1.471-.496-24.929-55.128-28.923-116.471-34.241-175.398-1.173-13.177-2.4-26.476-4.687-39.267-.313-1.938-.595-3.845-1.763-5.39 14.01-11.523 14.146-33.857 7.36-50.423 15.603-42.012-14.98-86.634-12.723-129.511 1.265-29.084-3.98-62.783-36.892-69.762-4.082-2.345-8.975-2.695-12.869-2.758-3.507-1.768-4.059-5.672-5.308-8.881l-1.219.008a136.56 136.56 0 0 1-1.02-4.509c-.463-.927-.189-2.137-1.647-1.879-3.305-4.777-29.754-7.178-30.054.513-.955.562-1.144 1.658-1.366 2.99-1.467 9.446-11.571 16.978-20.676 15.459l-.147-.133c-38.762-1.434-54.02 26.092-61.595 63.605-5.918 29.147-9.68 60.734-5.045 89.929 4.528 13.231 18.242 19.597 28.852 27.748-1.223 3.077-1.337 6.471-1.374 9.8-.14 3.843-.42 7.717-.761 11.509-.698 4.805-1.827 13.076 4.726 13.637 2.538 57.431 7.84 114.711-.262 172.31-6.725 31.854-4.151 70.396 4.165 101.563.48 1.54 1.713 2.925 3.287 2.433.799.516 1.423.839 2.084.352.39.72.817 1.412 1.278 2.083.175 8.562 1.147 16.963.704 25.581-.66-.076-2.112-.802-2.676-.327l-.081.657-.537.183c-1.125 3.167-1.83 6.491-2.352 9.173-2.276 4.597-5.183 12.732-3.562 17.852-.078.091-.515.598-.584.675-.387.221-.458.517-.553.857-1.104.413-1.217 1.673-1.331 2.961-.553 3.121.268 5.958.551 9.012l.016-.021.929 1.074c11.652.708 23.127.89 34.727 1.306.876-1.674 1.139-3.936 1.797-5.775 13.753 10.044 37.582 6.202 54.856 3.735 7.016-1.009 13.644-1.963 19.52-2.281.382-.053.41-.217.42-.369.057-2.299.49-4.656.274-6.887 1.214-1.177.661-3.32-.173-5.203-3.067-6.63-11.401-7.355-18.153-8.486-12.703-2.461-22.918-7.09-31.182-14.167a28.508 28.508 0 0 0 1.521-1.477l-.538-.359c-.435-.191-.851-.386-1.233-.632a.675.675 0 0 1-.678-.003c-.83-.466-1.507-1.15-2.296-1.674-.156.225-.314.454-.472.693-.756-.796-1.613-1.698-2.361-2.532-.027-.231.034-.806-.248-.869-2.127.215-4.592.931-6.817 1.726-2.516-8.252-3.973-17.182-3.805-25.615 2.474 0 4.641-.023 6.485-1.197.505.136 1.207.427 1.337-.364.749-3.229.944-6.648 1.132-9.955 3.829-62.547 9.662-112.808 29.012-165.792 1.858 7.357 4.977 15.008 7.816 22.332 12.916 30.607 22.221 63.615 30.197 95.74 3.138 12.025 6.549 25.239 9.919 37.139 1.306 5.72 3.962 7.814 9.528 7.769 4.289.201 8.593.138 12.9-.163 5.871 5.343 8.278 12.555 9.993 19.049-1.429 1.061-3.697.66-5.368 1.011-1.44 2.318-.942 5.559-.908 8.418.226 3.715.033 7.7 1.117 11.208.193 3.836.217 8.039.506 12.499-3.182 1.843-2.599 5.913-1.542 9.808.472.991 17.578.794 21.822.753 4.986-.29 12.097.982 13.732-4.475 11.871 6.583 29.932 4.359 43.762 2.421 10.038-1.221 19.131-2.357 28.988-4.428.102-.045.245-.361.174-.506Z" clip-rule="evenodd"></path>
  <path fill="#000" fill-rule="evenodd" d="M161.818 145.573c.767-.154 1.428.073 1.893.493.1 1.036.088 2.069.002 3.102-.085.074-.18.145-.285.211l.08-.051c.072-.046.121-.08.153-.105-1.012 6.735-5.696 12.464-11.767 15.51-.376.618-1.226.576-1.836.855l-.858.27c-2.362.739-4.752 1.437-7.25 1.484 6.352 17.812 31.192 27.488 48.763 28.803 15.176.799 23.597-11.765 19.593-25.857-8.791-1.135-17.434-10.472-14.247-19.493l.1-.274c.022-.092.145-.059.155.022.097.919.646 1.932.89 2.83l.113.319c.845 2.432 1.595 5.333 3.984 6.627l.408.01c4.297.112 8.783.678 12.566 2.802 4.218.827 8.25 2.495 12.004 4.562 29.644 16.067 24.9 50.24 25.823 78.699 2.876 38.997 26.677 77.968 12.639 117.119 6.41 16.304 6.906 38.217-7.084 50.656.154.241.283.505.392.775.666 1.659.872 3.56 1.186 5.322l.037.202c.757 4.095 1.301 8.233 1.833 12.362 1.049 8.146 1.812 16.328 2.538 24.509l.103 1.168c1.819 20.564 3.407 41.173 5.792 61.684l.445 3.04c3.228 21.958 6.744 43.968 12.04 65.486.156.577.311 1.154.471 1.729 1.908 6.903 4.154 13.689 6.265 20.528a125.011 125.011 0 0 0 2.19 6.413l.97 2.404.488 1.201a272.449 272.449 0 0 0 5.485 12.541c.348.746-.159 1.433-.757 1.625 1.763 2.79 2.427 6.114 3.9 9.076 2.105 4.724 4.6 9.319 7.713 13.462 1.722-1.293 3.646.377 5.078 1.33.919.571 2.111 1 2.472 2.008.693.398 1.368.836 2.007 1.275l.064-.208c.776-2.479 2.294-5.806 4.761-6.912 2.885-1.211 5.186 1.203 4.323 4.091-.529 2.58-1.356 5.051-2.237 7.539 8.874 5.349 18.578 9.405 28.787 11.441l.348.068c2.463.489 4.966.827 7.224 1.996 3.742 2.05 6.157 5.947 7.669 9.843.525.128 1.007.585 1.123 1.088l.996 4.297c.332 1.433.662 2.865.987 4.299.178.777-.237 1.756-1.097 1.929a350.064 350.064 0 0 1-17.859 3.094c-16.976 1.569-38.817 7.084-54.58-.659-2.515 5.161-9.518 3.685-14.271 4.074-2.886-.213-23.149.886-22.955-1.558l-.113-.42c-.895-3.415-1.703-8.003 1.561-10.354-.204-3.854-.357-7.71-.42-11.566-1.137-3.66-.94-7.708-1.171-11.528.03-2.848-.635-6.136.924-8.682.137-1.688 3.895-.787 5.139-1.405l-.11-.401c-1.716-6.212-4.102-12.256-8.922-16.804-4.166.276-8.345.325-12.515.13-6.351.025-9.247-2.722-10.63-8.686a989.53 989.53 0 0 1-2.91-10.514c-7.429-27.615-14.176-55.474-22.387-82.875-3.139-9.183-6.611-18.255-10.112-27.303-2.373-6.133-4.75-12.264-7.124-18.396-1.22-3.15-2.423-6.318-3.483-9.525a67.194 67.194 0 0 1-.901-2.973c-18.418 51.086-24.26 105.361-27.52 159.256-.296 4.304-.349 8.655-1.325 12.867-.299 1.297-1.396 1.654-2.365 1.37-1.784.944-3.104 1.054-5.401 1.09l.017.739c.131 5.296.456 10.578 1.66 15.75.477 2.159 1.332 4.259 1.795 6.409 1.872-.635 3.784-1.114 5.75-1.349.993-.118 1.56.711 1.601 1.562.365.403.734.801 1.109 1.197l.189-.244c1.766-2.277 4.03-5.396 7.099-5.653 1.397-.085 2.672.701 2.976 2.119.292 3.257-2.412 6.824-4.693 8.985 8.452 6.978 18.926 11.008 29.617 13.064l.418.069c6.859 1.12 15.319 2.003 18.589 9.084l.069.152c.767 1.726 1.492 4.342.242 5.923.148 2.16-.252 4.382-.304 6.563-.055.886-.653 1.4-1.501 1.499-21.824 1.169-55.089 11.363-73.781-.767-.384 1.344-.781 2.685-1.149 4.034-.162.595-.763 1.081-1.392 1.057-11.57-.415-23.179-.602-34.735-1.306-.336.006-.618-.144-.851-.415-.272.332-.964.242-1.057-.23-.163-.828-.164-1.668-.239-2.508-.086-.971-.346-1.867-.499-2.817-.281-1.755-.155-3.636.02-5.396l.044-.446c.122-1.163.34-2.484 1.393-3.144l.07-.042.011-.005c.117-.371.393-.691.743-.945l.021-.024c-.551-1.312-.339-2.971-.178-4.337.443-4.755 1.777-9.46 3.975-13.681.626-3.21 1.386-6.532 2.515-9.587-.031-.14.145-.258.28-.196a.863.863 0 0 1 .139-.059.654.654 0 0 1 .03-.138c.195-.574.797-.888 1.362-.978.478-.075.892.052 1.321.16.309-8.298-.673-16.582-.774-24.876-.79.382-1.677.043-2.405-.396-2.114.325-3.613-1.474-4.192-3.366l-.34-1.533c-3.047-13.805-5.793-27.73-7.27-41.801-2.04-19.642.425-39.301 3.42-58.713 8.128-51.113 2.24-102.779 1.661-154.172-.485-5.611-.685-11.284-1.302-16.892-2.292-.272-4.025-2.414-4.8-4.465-1.213-3.252-.337-7.004-.03-10.346.34-3.704.589-7.416.75-11.13l.02-1.084c.055-2.896.18-5.812 1.144-8.569-10.273-7.892-23.895-14.092-28.243-27.285-1.977-1.778-1.579-10.017-1.902-13.04-1.32-26.146.916-52.466 6.582-78.025 7.09-34.831 21.614-66.042 62.326-64.551a2.106 2.106 0 0 1-.095-.076c.43-.142.874-.002 1.19.282 6.932.889 13.557-3.198 17.02-9.072.851-1.465 1.482-2.994 1.82-4.655l.026-.133c.352-1.827.452-4.18 2.733-4.638Zm-52.595 568.812c-.984.543-2.06.608-2.966 1.332a26.638 26.638 0 0 0 .181 10.528c10.853.116 21.72.663 32.569 1.036.437-1.676.85-3.361 1.306-5.032l.011-.035.024-.066c1.126.038 2.252.071 3.378.099 16.661 11.917 51.18 1.79 71.292.796l.206-3.34a1.39 1.39 0 0 1-.598.248c.187-.488-.146-1.123-.809-.938-1.07.299-2.146.574-3.225.833a.613.613 0 0 0-.279-.039c-9.441.805-18.921.729-28.389.758-9.434.028-18.859.425-28.294.399a431.324 431.324 0 0 1-11.544-.183c-11.08-2.054-22.081-4.477-32.863-6.396Zm258.625-20.362c-.467.338-1.077.367-1.725.455l-.093.013a26.78 26.78 0 0 1-1.784.213c-1.475.951-4.412.822-5.834 1.092-31.211 3.113-62.639-.58-93.882 1.92-1.491 2.123-1.127 4.752-.334 7.124 8.724.328 17.457.505 26.185.128l.698-.025c1.078-.043 2.184-.12 3.18-.527.891-.363 1.985-1.262 1.845-2.34l-.009-.061c-.214-1.237 1.088-2.685 2.354-1.805 11.938 7.903 28.158 3.929 41.608 3.152a341.997 341.997 0 0 0 28.898-4.329c-.371-1.669-.739-3.34-1.107-5.01ZM149.823 659.01c-1.001.115-2.003.217-3.007.308-4.025.362-8.064.545-12.104.66l-1.885.052c-3.764.101-7.552.19-11.309-.014-1.9-.103-3.849-.326-5.686-.842 1.617 8.461 2.448 17.077 2.422 25.687.505.436.402 1.156.268 1.707l.127.374c.294.875.576 1.766.688 2.661 11.662 6.923 21.344-.167 31.978-5.131-1.753-4.549-2.286-9.536-2.579-14.367-.164-3.758.117-7.425 1.087-11.095Zm21.199 22.343c-.486.055-.937.359-1.33.628-1.622 1.159-3.024 2.531-4.304 4.014.492.484.993.96 1.504 1.427 1.916-1.54 3.42-3.686 4.13-6.069Zm123.954-43.989-1.579.531c-9.748 3.264-19.697 6.328-30.052 7.243.556.55 1.024 1.201 1.435 1.894.358.303.719.691.617 1.151.333.671.627 1.352.907 1.994 1.638 3.887 3.529 7.713 4.909 11.715.401 1.671 1.976 4.007 1.242 5.624 11.008 4.785 24.702 2.654 33.111-6.098l-.296-.437c-4.833-7.144-9.08-14.992-10.294-23.617Zm29.858 20.196c-.668-.574-1.839 1.009-2.135 1.403-1.098 1.457-1.853 3.052-2.413 4.721.705.483 1.415.936 2.132 1.398l.04-.066c.667-1.149 3.068-6.727 2.376-7.456Zm-209.345-.124.012.059c.591.092 1.183.174 1.777.241 1.445.164 2.908.237 4.366.267-2.052-.295-4.105-.535-6.155-.567Zm15.645-278.137-.486-.049-.624-.076c-8.011-.994-16.084-2.321-24.151-1.031 1.117 5.158 1.192 10.563 1.553 15.847 1.721 50.894 7.922 102.078.975 152.852l-.215 1.539c-2.532 18.058-5.545 36.178-4.332 54.476.946 16.679 4.347 33.074 7.726 49.396.812.203 1.624.407 2.439.607.024-.227.165-.097.192.047 10.007 2.666 20.451 2.895 30.734 2.226 1.939-.112 3.869-.269 5.806-.401 1.494-.648 3.09-1.062 4.71-1.346 3.415-51.793 7.888-104.176 23.941-153.832 10.219-31.545 22.984-62.263 30.536-94.617.262-.907 1.639-.526 1.415.391l-.235 1.241c-1.918 10.133-3.646 20.297-6.632 30.201 2.267-2.465 4.852-4.64 6.991-7.219a19.337 19.337 0 0 0 1.808-2.581c.5-1.131 1.303-2.016 2.546-2.28.57-.23 1.099.253 1.287.73.523 1.315.302 2.252-.459 3.411l-.191.285c-3.357 4.954-8.732 7.847-13.167 11.735-3.713 12.371-7.987 24.566-12.176 36.78-.053 2.43.389 4.829 1.102 7.146.811 2.381 1.537 4.905 2.783 7.138 17.323 36.141 26.052 75.519 36.578 113.974 2.771 10.255 5.576 20.507 8.597 30.692l.044.186c.688 2.871 1.762 4.026 4.915 4.021 15.798.726 32.02-1.849 46.412-8.19-7.927-21.115-13.432-42.967-17.712-65.112-2.159-10.468-3.909-21.019-5.383-31.611-2.052-13.523-3.863-27.077-5.697-40.563-3.754-26.432-3.589-53.328-8.372-79.598-1.634.054-3.034-1.883-2.04-3.33-.347-1.438-.038-3.011.477-4.339l-.062-.289c-5.604 4.967-12.917 5.596-9.164-3.954l.259-.648c2.818-7.007 6.404-14.493 4.813-22.178-16.255 8.659-36.125 7.263-53.596 3.467 1.361 4.938-2.305 7.966-6.441 4.65a53.76 53.76 0 0 1-2.194-1.87c1.051 4.162.487 8.523-.485 12.647l-.092.476c-.473 2.474-1.01 5.758-2.895 7.471-1.375 1.247-3.446.716-4.064-1.064-.345-5.888-1.99-11.679-5.001-16.799.503 3.742.38 7.586-.544 11.175-.356 1.372-.85 2.773-.967 4.192l.018.233c.177 2.501-.156 4.799-3.281 4.849-7.411-1.304-2.736-18.808-7.455-24.344-1.433 6.681.237 15.463-6.279 19.898-1.8 1.123-3.997.471-4.363-1.709l.13-1.714c.777-10.456.632-13.59-6.086-23.393-4.555 1.09-9.326.623-13.946.158Zm132.017 268.733c.004.04.007.078.009.118.078.079.155.159.232.24l.115.123-.133-.327a6.344 6.344 0 0 1-.223-.154Zm-6.117-233.325-.305.257-.155.127c.271 1.206.524 2.415.77 3.625l-.047-.797c-.045-.784.08-2.207-.263-3.212Zm-4.947-107.184c-2.292-10.648-4.577-15.141-1.674.194l.315 1.657a651.431 651.431 0 0 1 3.827 22.272l.259 1.697c1.299 8.403 3.34 20.703 3.491 30.558.171 11.18-5.515 14.498-7.763 15.947-.421 1.229.113 2.255.468 3.436.477 1.896.601 3.719.465 5.667-.472 6.647-4.03 12.651-5.647 18.959 2.072-.568 4.383-2.432 6.193-3.909 3.215-2.553 5.458-6.334 6.427-10.345.461-1.894.126-4.233 1.418-5.786.38-.457 1.201-.412 1.589 0 1.054 1.122.954 2.496.783 3.93-.574 4.879-2.724 9.661-6.186 13.173-.164 1.802-.702 3.408-1.06 5.122.138.384.276.768.407 1.154 2.345-2.022 4.306-4.468 5.825-7.162 6.781-11.886 4.413-25.574 2.658-38.536-.353.868-1.155 1.214-1.936 1.128-.449 1.121-1.621.407-1.668-1.043-.29-9.031-1.492-21.872-3.704-35.025-1.318-7.837-2.914-15.783-4.487-23.088Zm-85.623 41.011c-3.364 10.418-16.618 12.45-24.36 18.804 3.889 10.24 14.773 21.206 11.571 34.414l-.018.099c-.096.507-.412 1.934-.073 2.202.217.171 1.547-1.125 1.78-1.381 4.657-5.532 1.947-13.355 4.566-19.663.345-.839 1.418-1.334 2.145-.564 3.275 3.464 4.067 8.133 4.568 12.696l.018.157c.403 3.549.182 7.205 1.235 10.656l.039.122c.224.667.643 1.607 1.11 1.777 1.29.467.805-1.595.85-2.411.136-2.356 1.138-4.562 1.489-6.882.751-4.978.003-10.199-1.653-14.918-.524-1.498 1.542-2.028 2.34-.984 3.313 4.342 5.968 9.168 7.718 14.347.705 2.088 1.081 4.202 1.551 6.33 2.933-8.889 2.849-18.233-3.795-25.521-1.572-1.884 1.047-4.6 2.74-2.733 1.756 2.089 3.476 4.201 5.384 6.156 1.883 1.893 3.697 4.225 6.025 5.576-.378-8.508-9.523-12.352-14.401-18.178-4.973-5.867-7.692-13.185-10.829-20.101Zm-43.954-71.852c-1.781 5.406-3.867 10.716-5.477 16.178-.334 3.697.806 5.231 3.527 7.578 1.177-6.706 1.665-13.508 2.294-20.286-.096-1.159-.115-2.328-.344-3.47Zm.878-2.657-.178.548.059.104.057.106.062-.758Zm108.548-67.648.68 4.476c2.498 16.41 5.076 32.817 8.622 49.039.195.894 1.348-.306 1.136-2.037-2.181-17.799-10.408-51.688-10.44-51.494l.002.016Zm-20.993-35.987c.159.189.309.389.454.59-.031-.18-.062-.363-.095-.545-.121-.014-.24-.028-.359-.045Z" clip-rule="evenodd"></path>
  <path fill="#fff" fill-rule="evenodd" d="M227.518 106.667c-.901-14.742-5.694-31.457-19.802-38.695-31.101-12.457-71.993 18.913-74.158 50.96-.755 10.969 5.348 22.956 16.501 26.006 2.48 3.279 6.229 5.281 9.931 7.019 44.084 22.825 72.561 4.271 67.528-45.29Z" clip-rule="evenodd"></path>
  <path fill="#000" fill-rule="evenodd" d="M237.561 97.496a341.188 341.188 0 0 0-4.935-12.855c-1.686-4.138-3.21-8.366-5.303-12.308-12.507-23.544-35.249-23.544-47.004-20.468-6.097-2.621-17.515-1.882-23.863.483-10.277 3.83-22.804 18.894-27.087 25.662-9.457 14.943-15.359 34.832-9.077 52.1.821 2.257 1.868 4.347 3.047 6.361-.743 1.005-1.597 1.956-2.544 2.891-2.814 2.778-5.628 5.465-8.058 8.598-2.416 3.114-4.418 6.426-5.909 10.077-2.811 6.886-2.947 14.682.77 21.252 3.233 5.717 8.96 9.974 15.413 10.38.332.046.663.088.997.122a18.621 18.621 0 0 0 3.087 3.827c3.645 3.461 12.335 5.236 17.292 5.35.254.203.51.407.767.609 3.032 2.382 6.215 4.785 9.696 6.48 2.359 1.149 5.451 2.109 7.911 1.279 1.116.745 2.947.588 4.054-.021 1.819-1 3.299-2.801 4.199-4.645 2.182-4.477 1.658-9.376 1.097-14.159-.617-5.283-1.211-10.569-1.814-15.851-.473-4.132-.967-8.331-2.226-12.311-.65-2.062-1.503-4.043-2.605-5.906a.965.965 0 0 0-.021-.46c-.361-1.171-1.107-1.785-1.99-2.581a14.145 14.145 0 0 1-.34-.313 10.73 10.73 0 0 0-1.42-1.365c-.195-.197-.387-.396-.58-.595-1.598-1.671-3.108-3.427-4.45-5.309-1.302-1.825-2.477-3.73-3.596-5.671-1.137-1.975-1.89-4.153-3.025-6.113a.313.313 0 0 0-.483-.062c-.351.363-.577.766-.534 1.19l-.176.026c-.066-.64-.658-1.161-1.46-1.021-1.202.208-2.19.287-3.23-.112.183-1.211.351-2.424.518-3.64.304-2.238.586-4.482.828-6.726a9.72 9.72 0 0 1 1.739.597 8.392 8.392 0 0 1 2.235 1.45c.646.593 1.092 1.392 1.881 1.804.907.472 2.002-.308 1.736-1.332-.539-2.069-3.591-3.254-5.479-3.645a8.778 8.778 0 0 0-1.974-.178 153.286 153.286 0 0 0 .537-6.376 10.812 10.812 0 0 1 4.567-.367c.503.401 1.007.796 1.494 1.197a297.659 297.659 0 0 1 5.015 4.214c.903.775 2.029.007 1.877-1.09-1.24-8.992 4.279-16.145 10.741-21.687 7.153-6.136 20.158-6.85 28.665-17.48 3.918.797 12.666 3.16 16.275 8.9 5.054 8.045 4.394 15.252 4.779 24.377.384 9.132 1.363 18.657-.715 27.661-1.917 8.303-7.106 15.397-15.157 18.658-.199.08-.401.159-.603.235-4.163 1.566-8.706 2.009-13.086 1.185-4.847-.915-8.894-3.129-12.926-5.852-.233-.154-.573.163-.397.396 5.315 7.029 15.755 9.378 24.037 7.522.387-.087.771-.182 1.154-.286-1.853 5.316-1.48 11.151.933 16.327 1.451 3.114 3.664 5.809 6.36 7.935 2.971 2.342 6.657 4.233 8.718 7.521 1.888 3.012 1.328 6.396-1.904 8.136-.815.441-1.129 1.865-.321 2.491.309.237.617.479.933.716 1.81 1.363 6.781 3.922 7.586 4.017 7.148.846 11.955-4.392 15.035-10.57 3.617-7.253 2.677-16.091-1.308-22.998-3.197-5.541-9.493-11.002-6.99-18.015.893-2.505 2.72-4.64 4.494-6.57 2.023-2.197 4.198-4.254 6.139-6.529 1.928-2.259 3.638-4.717 4.593-7.551 1.394-4.143.7-8.623-.347-12.759-2.244-8.878-5.158-17.638-8.262-26.249Z" clip-rule="evenodd"></path>
  <path fill="#000" fill-rule="evenodd" d="M183.91 137.772c2.908-3.372 7.806-3.607 11.864-2.764 2.604.541 5.139 1.443 7.784 1.777 1.235.156 2.483.203 3.727.18 1.223-.022 2.447-.268 3.664-.223.188.007.258.253.096.352-1.671 1.025-3.921 1.353-5.895 1.553.006.146.015.288.035.409.054.322.103.641.143.965.09.73.19 1.458.29 2.187.197 1.434.259 2.914.606 4.323l.06.234c.08.297.099.564.072.805l.08-.037.254-.122.166-.079c.606-.28 1.185-.484 1.898-.416.543.051.999.421 1.002.999.014 2.597-3.493 3.432-5.498 3.929l-.588.144c-2.553.622-5.16 1.167-7.785 1.297-4.214.209-8.949-.951-11.705-4.362-2.572-3.182-3.043-7.935-.27-11.151Zm19.134 10.909c-.442-3.909-5.255-4.124-6.64-1.645-.615-3.455-9.705-.298-8.994.389 2.694 2.603 6.783 2.838 10.297 2.356 1.79-.245 3.582-.645 5.337-1.1Zm-5.341-10.245-1.211-.174-.476-.066c-3-.401-6.374-.608-8.841 1.312-.9.7-1.407 1.614-1.596 2.596 2.334-.345 4.676-.609 7.026-.828l.64-.059c1.471-.132 2.94-.271 4.409-.418l1.043-.105 1.044-.108c.367-.039 2.841-.165 3.306-.08.05-.417.115-1.32.22-1.726-1.758.06-3.508-.071-5.256-.303l-.308-.041Zm5.57-17.473c1.794 1.088 4.526 3.625 2.597 6.322-2.271 2.378-5.541-.349-7.152-1.582-1.494-.956-3.172 1.502-1.786 2.618 11.642 8.602 16.367-7.074 7.248-8.637-1.004-.172-1.377.942-.907 1.279Zm3.21 4.583.086-.047.029-.017c.05-.033.018-.029-.096.01l-.086.031v.061c.022-.014.045-.024.067-.038Zm-22.968-9.665-.001-.054c.004-1.511.886-4.962 3.066-4.962 1.362 0 2.189 2.349 2.332 4.77l.005.098c.063 1.505-.351 4.795-2.337 4.795-2.008 0-3.045-3.116-3.065-4.647Zm32.098-.474v-.054c-.003-1.511-.885-4.962-3.066-4.962-1.328 0-2.147 2.233-2.32 4.588l-.012.182c-.086 1.454.301 4.893 2.332 4.893 2.008 0 3.045-3.116 3.066-4.647Zm-30.854-14.846c1.779-.27 4.135.243 4.964 2.048.37.804-.068 1.694-.999 1.739-2.252.107-4.271-.393-6.248 1.068-.85.629-1.565 1.5-2.165 2.369l-.228.33-.188.272c-.407.598-.793 1.248-.733 1.969.018.214-.201.416-.408.408-1.296-.053-1.435-1.674-1.265-2.647.317-1.807 1.193-3.503 2.407-4.869 1.276-1.434 2.959-2.399 4.863-2.687Zm24.506 2.192c1.227-.787 2.796-1.089 4.234-.974 2.833.228 7.588 2.632 6.962 6.087-.193 1.065-1.678 1.627-2.553 1.036-.94-.635-1.169-1.623-1.87-2.453-.558-.664-1.266-1.144-2.024-1.552-.747-.404-1.612-.648-2.46-.737l-.141-.014c-.51-.043-3.087-.031-2.709.929.074.188-.206.337-.335.194-.79-.872.105-2.008.896-2.516Z" clip-rule="evenodd"></path>
</svg>
